<?xml version="1.0" standalone="no"?>
<!DOCTYPE svg PUBLIC "-//W3C//DTD SVG 20010904//EN"
 "http://www.w3.org/TR/2001/REC-SVG-20010904/DTD/svg10.dtd">
<svg version="1.0" xmlns="http://www.w3.org/2000/svg"
 width="260.000000pt" height="260.000000pt" viewBox="0 0 260.000000 260.000000"
 preserveAspectRatio="xMidYMid meet">
<metadata>
Created by potrace 1.11, written by Peter Selinger 2001-2013
</metadata>
<g transform="translate(0.000000,260.000000) scale(0.100000,-0.100000)"
fill="#000000" stroke="none">
<path d="M101 2498 c-37 -10 -91 -62 -93 -91 -5 -72 12 -114 59 -144 25 -16
67 -18 512 -19 267 0 491 2 496 5 6 3 15 6 20 7 6 1 27 10 48 19 43 18 43 18
-18 80 -28 29 -84 96 -111 134 -11 14 -57 16 -448 16 -239 0 -448 -3 -465 -7z"/>
<path d="M1303 2503 c-6 -2 16 -31 50 -64 66 -63 75 -66 142 -38 17 7 32 13
35 14 3 1 16 6 30 12 14 6 43 18 64 27 22 9 37 18 34 21 -18 18 -315 41 -355
28z"/>
<path d="M1866 2334 c-31 -18 -59 -34 -62 -34 -3 0 -12 -7 -21 -15 -8 -8 -19
-13 -24 -10 -5 4 -9 2 -9 -3 0 -5 -10 -13 -21 -19 -15 -6 38 -8 162 -7 101 1
185 2 187 3 9 3 -101 91 -137 111 -13 7 -32 0 -75 -26z"/>
<path d="M77 2131 c-88 -45 -95 -170 -12 -221 30 -19 50 -20 266 -21 337 -1
319 -2 326 19 20 54 167 222 195 222 4 0 8 4 8 8 0 5 -169 8 -376 8 -321 0
-381 -2 -407 -15z"/>
<path d="M1710 2141 c0 -3 30 -35 66 -71 37 -36 87 -91 112 -122 43 -55 47
-58 91 -59 44 0 264 0 324 1 l29 0 -43 78 c-35 64 -89 151 -106 172 -6 7 -473
8 -473 1z"/>
<path d="M1046 2050 c-79 -24 -114 -107 -77 -183 18 -38 25 -43 58 -45 76 -6
109 -77 58 -127 -13 -14 -36 -25 -50 -25 -35 0 -75 42 -75 79 0 44 -50 80
-107 76 -107 -7 -162 -112 -102 -199 33 -49 65 -56 256 -56 154 0 172 2 187
19 15 16 17 43 17 195 -1 165 -2 178 -23 211 -31 47 -90 70 -142 55z"/>
<path d="M1353 2044 c-75 -37 -88 -124 -29 -187 33 -36 36 -44 27 -108 -1 -4
-10 -9 -21 -12 -31 -8 -51 -64 -36 -101 11 -27 9 -36 -12 -73 -17 -32 -30 -43
-47 -43 -14 0 -35 -13 -52 -34 -36 -43 -96 -57 -113 -26 -15 27 -62 50 -105
50 -72 0 -130 -88 -103 -159 19 -50 77 -86 123 -77 11 3 25 5 31 5 20 2 63 52
69 81 5 22 13 29 41 33 62 10 78 -7 68 -73 -5 -33 -12 -41 -39 -50 -47 -16
-77 -52 -82 -102 -10 -104 103 -168 188 -106 39 29 52 73 40 141 0 4 -14 21
-31 38 -24 26 -29 37 -24 63 4 17 7 37 7 44 0 6 6 12 13 12 7 0 25 11 40 25
38 35 82 34 95 -2 5 -16 25 -39 44 -52 29 -20 42 -22 81 -16 46 7 74 29 98 77
14 28 70 37 94 14 33 -29 66 -35 100 -19 60 29 61 108 1 142 -33 18 -72 8
-104 -27 -38 -42 -77 -41 -119 5 -31 34 -39 38 -85 38 -41 0 -55 -5 -80 -29
-17 -17 -31 -35 -31 -42 0 -16 -65 -13 -82 4 -19 19 26 100 60 108 15 4 38 17
52 30 38 35 70 36 103 6 40 -38 92 -36 126 5 35 42 89 50 120 17 37 -39 124
-16 128 33 1 10 2 23 4 28 6 24 -22 65 -48 72 -46 11 -67 6 -94 -27 -33 -39
-84 -47 -115 -18 -11 10 -36 20 -54 23 -26 3 -39 -2 -62 -25 -39 -39 -76 -44
-108 -14 -21 19 -25 31 -22 63 3 33 8 40 30 46 15 3 41 20 58 37 26 25 35 28
52 19 10 -6 22 -8 24 -5 3 3 8 -6 12 -20 11 -46 88 -69 125 -39 12 10 25 32
30 50 21 72 -74 128 -131 77 -25 -23 -83 -11 -85 17 -3 33 -32 70 -68 85 -43
18 -62 17 -102 -2z"/>
<path d="M80 1779 c-92 -41 -100 -169 -13 -226 24 -16 57 -18 284 -18 l257 -1
1 106 c0 58 2 116 3 129 l3 25 -250 0 c-208 1 -255 -2 -285 -15z"/>
<path d="M2003 1792 c-21 -3 -21 -4 -7 -45 9 -23 19 -80 22 -127 l7 -85 197 0
198 0 -5 57 c-3 31 -10 69 -16 85 -6 15 -10 28 -9 28 1 0 -3 19 -9 43 -9 33
-17 42 -34 43 -67 3 -325 4 -344 1z"/>
<path d="M79 1411 c-48 -24 -72 -62 -72 -114 1 -55 25 -93 72 -115 32 -15 72
-17 361 -16 179 1 330 3 337 3 7 1 -7 29 -32 64 -24 34 -57 92 -74 127 l-30
65 -264 1 c-222 0 -270 -2 -298 -15z"/>
<path d="M1987 1400 c-27 -68 -62 -134 -93 -180 -19 -27 -31 -50 -27 -51 5 -1
137 -2 295 -3 226 -1 288 2 288 12 0 7 -13 30 -29 53 -53 72 -68 145 -37 171
12 9 19 18 16 19 -3 1 -94 2 -204 3 l-198 2 -11 -26z"/>
<path d="M80 1052 c-41 -21 -70 -58 -72 -92 -2 -55 3 -72 36 -108 l34 -37 312
-3 c266 -2 316 -1 335 12 57 38 145 84 219 117 l49 21 -55 54 -56 53 -384 0
c-344 1 -387 -1 -418 -17z"/>
<path d="M1685 1023 c-38 -25 -113 -66 -165 -91 -52 -25 -97 -46 -99 -48 -2
-2 13 -19 34 -39 l39 -35 473 0 473 0 12 26 c7 15 30 33 60 46 56 24 88 60 83
90 -3 12 -16 38 -31 59 l-26 39 -392 -1 -391 0 -70 -46z"/>
<path d="M1141 914 c-26 -33 -26 -50 -1 -96 l19 -36 -23 -6 c-12 -3 -40 -13
-62 -23 -21 -9 -42 -16 -46 -15 -5 1 -8 -2 -8 -8 0 -6 40 -9 100 -7 l99 2 29
-33 c37 -41 88 -136 106 -196 16 -53 15 -162 -2 -193 -12 -22 -17 -22 -82 -8
-14 3 -38 8 -55 10 -16 3 -39 7 -50 10 -11 2 -67 14 -124 25 -104 21 -104 21
-124 2 -14 -14 -18 -28 -13 -45 6 -27 17 -33 80 -43 21 -3 48 -8 60 -10 11 -3
32 -7 46 -10 49 -9 125 -24 150 -30 14 -3 31 -6 38 -6 18 -2 16 -5 -32 -53
-31 -32 -39 -45 -27 -46 9 0 56 -1 106 -1 101 1 106 3 149 92 63 126 65 293 6
414 -11 23 -20 45 -20 49 0 9 -66 112 -93 146 -12 14 -47 52 -78 84 -47 48
-61 57 -92 57 -27 0 -41 -7 -56 -26z"/>
<path d="M875 780 c-61 -31 -165 -137 -165 -168 0 -5 -8 -24 -17 -43 -13 -26
-18 -59 -18 -134 1 -55 4 -111 7 -125 16 -60 27 -90 58 -153 l32 -67 88 0 c49
0 91 4 94 9 4 5 3 11 -2 13 -21 9 -90 139 -111 208 -21 72 -17 188 7 212 4 4
27 3 52 -2 25 -5 63 -11 85 -14 22 -4 87 -15 144 -25 102 -18 104 -18 123 1
19 19 17 56 -4 69 -5 3 -82 19 -170 34 l-161 28 36 21 c69 40 72 122 5 145
-40 14 -36 14 -83 -9z"/>
<path d="M74 700 c-87 -49 -91 -170 -7 -226 22 -14 56 -17 216 -18 l189 -1 28
77 c15 43 43 101 62 130 l35 53 -248 0 c-203 0 -252 -3 -275 -15z"/>
<path d="M1593 712 l-23 -3 24 -32 c29 -38 71 -129 80 -175 4 -18 15 -36 24
-40 13 -6 600 -9 684 -3 12 1 15 8 12 25 -3 16 5 35 21 55 30 35 37 63 26 94
-6 14 -4 32 5 50 12 21 12 27 2 28 -45 2 -837 3 -855 1z"/>
<path d="M78 341 c-66 -34 -89 -100 -58 -167 29 -66 56 -75 232 -75 267 -1
261 -1 253 19 -19 46 -33 126 -34 193 l-1 45 -180 1 c-147 0 -187 -3 -212 -16z"/>
<path d="M1699 356 c0 -1 -3 -14 -5 -31 -9 -62 -37 -176 -46 -181 -15 -10 -8
-44 10 -45 82 -5 98 1 107 40 4 17 21 46 38 65 46 47 104 63 212 59 117 -4
145 -7 145 -13 0 -3 32 -5 71 -5 70 0 71 0 110 43 22 23 39 48 36 55 -3 9 -86
12 -340 13 -185 0 -337 0 -338 0z"/>
</g>
</svg>
